<svg xmlns="http://www.w3.org/2000/svg" xmlns:xlink="http://www.w3.org/1999/xlink" width="1080" zoomAndPan="magnify" viewBox="0 0 810 320.250004" height="427" preserveAspectRatio="xMidYMid meet" version="1.0"><defs><clipPath id="7973880824"><path d="M 0.945312 90.089844 L 210.945312 90.089844 L 210.945312 300.089844 L 0.945312 300.089844 Z M 0.945312 90.089844 " clip-rule="nonzero"/></clipPath><clipPath id="c6cea18194"><path d="M 2.132812 90.089844 L 209.757812 90.089844 C 210.414062 90.089844 210.945312 90.621094 210.945312 91.277344 L 210.945312 298.902344 C 210.945312 299.558594 210.414062 300.089844 209.757812 300.089844 L 2.132812 300.089844 C 1.476562 300.089844 0.945312 299.558594 0.945312 298.902344 L 0.945312 91.277344 C 0.945312 90.621094 1.476562 90.089844 2.132812 90.089844 Z M 2.132812 90.089844 " clip-rule="nonzero"/></clipPath><clipPath id="47470c3458"><path d="M 0.945312 0.0898438 L 210.945312 0.0898438 L 210.945312 210.089844 L 0.945312 210.089844 Z M 0.945312 0.0898438 " clip-rule="nonzero"/></clipPath><clipPath id="f48bc1c2e2"><path d="M 2.132812 0.0898438 L 209.757812 0.0898438 C 210.414062 0.0898438 210.945312 0.621094 210.945312 1.277344 L 210.945312 208.902344 C 210.945312 209.558594 210.414062 210.089844 209.757812 210.089844 L 2.132812 210.089844 C 1.476562 210.089844 0.945312 209.558594 0.945312 208.902344 L 0.945312 1.277344 C 0.945312 0.621094 1.476562 0.0898438 2.132812 0.0898438 Z M 2.132812 0.0898438 " clip-rule="nonzero"/></clipPath><clipPath id="1a070f5a91"><rect x="0" width="211" y="0" height="211"/></clipPath><clipPath id="ff9d2c2453"><path d="M 264.804688 90.089844 L 474.804688 90.089844 L 474.804688 300.089844 L 264.804688 300.089844 Z M 264.804688 90.089844 " clip-rule="nonzero"/></clipPath><clipPath id="e3e70e4693"><path d="M 265.992188 90.089844 L 473.617188 90.089844 C 474.273438 90.089844 474.804688 90.621094 474.804688 91.277344 L 474.804688 298.902344 C 474.804688 299.558594 474.273438 300.089844 473.617188 300.089844 L 265.992188 300.089844 C 265.335938 300.089844 264.804688 299.558594 264.804688 298.902344 L 264.804688 91.277344 C 264.804688 90.621094 265.335938 90.089844 265.992188 90.089844 Z M 265.992188 90.089844 " clip-rule="nonzero"/></clipPath><clipPath id="1251b8832a"><path d="M 0.804688 0.0898438 L 210.804688 0.0898438 L 210.804688 210.089844 L 0.804688 210.089844 Z M 0.804688 0.0898438 " clip-rule="nonzero"/></clipPath><clipPath id="f1e81b021f"><path d="M 1.992188 0.0898438 L 209.617188 0.0898438 C 210.273438 0.0898438 210.804688 0.621094 210.804688 1.277344 L 210.804688 208.902344 C 210.804688 209.558594 210.273438 210.089844 209.617188 210.089844 L 1.992188 210.089844 C 1.335938 210.089844 0.804688 209.558594 0.804688 208.902344 L 0.804688 1.277344 C 0.804688 0.621094 1.335938 0.0898438 1.992188 0.0898438 Z M 1.992188 0.0898438 " clip-rule="nonzero"/></clipPath><clipPath id="28c03f6043"><rect x="0" width="211" y="0" height="211"/></clipPath><clipPath id="4b06b98bb2"><path d="M 528 19 L 809 19 L 809 300 L 528 300 Z M 528 19 " clip-rule="nonzero"/></clipPath><clipPath id="95e20dbd01"><path d="M 620.1875 19.414062 L 809.285156 111.339844 L 717.355469 300.4375 L 528.257812 208.511719 Z M 620.1875 19.414062 " clip-rule="nonzero"/></clipPath><clipPath id="7f0e19afec"><path d="M 620.1875 19.414062 L 812.203125 112.761719 L 718.859375 304.777344 L 526.839844 211.433594 Z M 620.1875 19.414062 " clip-rule="nonzero"/></clipPath><clipPath id="fe49621d07"><path d="M 621.253906 19.933594 L 807.972656 110.703125 C 808.5625 110.988281 808.808594 111.699219 808.523438 112.289062 L 717.75 299.011719 C 717.464844 299.601562 716.753906 299.84375 716.164062 299.558594 L 529.445312 208.789062 C 528.855469 208.5 528.609375 207.792969 528.894531 207.203125 L 619.667969 20.480469 C 619.953125 19.890625 620.664062 19.644531 621.253906 19.933594 Z M 621.253906 19.933594 " clip-rule="nonzero"/></clipPath></defs><g clip-path="url(#7973880824)"><g clip-path="url(#c6cea18194)"><g transform="matrix(1, 0, 0, 1, 0, 90)"><g clip-path="url(#1a070f5a91)"><g clip-path="url(#47470c3458)"><g clip-path="url(#f48bc1c2e2)"><path fill="#b23eb6" d="M 0.945312 0.0898438 L 210.945312 0.0898438 L 210.945312 210.089844 L 0.945312 210.089844 Z M 0.945312 0.0898438 " fill-opacity="1" fill-rule="nonzero"/></g></g></g></g></g></g><g clip-path="url(#ff9d2c2453)"><g clip-path="url(#e3e70e4693)"><g transform="matrix(1, 0, 0, 1, 264, 90)"><g clip-path="url(#28c03f6043)"><g clip-path="url(#1251b8832a)"><g clip-path="url(#f1e81b021f)"><path fill="#d19acd" d="M 0.804688 0.0898438 L 210.804688 0.0898438 L 210.804688 210.089844 L 0.804688 210.089844 Z M 0.804688 0.0898438 " fill-opacity="1" fill-rule="nonzero"/></g></g></g></g></g></g><g clip-path="url(#4b06b98bb2)"><g clip-path="url(#95e20dbd01)"><g clip-path="url(#7f0e19afec)"><g clip-path="url(#fe49621d07)"><path stroke-linecap="butt" transform="matrix(0.672944, 0.32714, -0.32714, 0.672944, 620.18602, 19.413558)" fill="none" stroke-linejoin="miter" d="M 1.587413 0.00108439 L 279.052531 0.00060205 C 279.928116 -0.00130376 280.639317 0.709417 280.641223 1.585002 L 280.639293 279.057098 C 280.641198 279.932683 279.928195 280.639189 279.05261 280.641095 L 1.587492 280.641577 C 0.709624 280.638788 0.000705841 279.932762 -0.00119996 279.057177 L 0.000730377 1.585081 C -0.00117543 0.709496 0.709545 -0.00170494 1.587413 0.00108439 Z M 1.587413 0.00108439 " stroke="#f6f2e5" stroke-width="16" stroke-opacity="1" stroke-miterlimit="4"/></g></g></g></g></svg>