<svg xmlns="http://www.w3.org/2000/svg" xmlns:xlink="http://www.w3.org/1999/xlink" width="500" zoomAndPan="magnify" viewBox="0 0 375 374.999991" height="500" preserveAspectRatio="xMidYMid meet" version="1.0"><defs><clipPath id="dc9f7c4d85"><path d="M 0 0 L 374.140625 0 L 374.140625 375 L 0 375 Z M 0 0 " clip-rule="nonzero"/></clipPath><clipPath id="f5f9e16aa7"><path d="M 0.546875 0 L 373.59375 0 C 373.898438 0 374.140625 0.246094 374.140625 0.546875 L 374.140625 374.453125 C 374.140625 374.753906 373.898438 375 373.59375 375 L 0.546875 375 C 0.246094 375 0 374.753906 0 374.453125 L 0 0.546875 C 0 0.246094 0.246094 0 0.546875 0 Z M 0.546875 0 " clip-rule="nonzero"/></clipPath><clipPath id="e830bcc991"><path d="M 0 0 L 374.140625 0 L 374.140625 375 L 0 375 Z M 0 0 " clip-rule="nonzero"/></clipPath><clipPath id="5c3a1c0e5a"><path d="M 0.546875 0 L 373.59375 0 C 373.898438 0 374.140625 0.246094 374.140625 0.546875 L 374.140625 374.453125 C 374.140625 374.753906 373.898438 375 373.59375 375 L 0.546875 375 C 0.246094 375 0 374.753906 0 374.453125 L 0 0.546875 C 0 0.246094 0.246094 0 0.546875 0 Z M 0.546875 0 " clip-rule="nonzero"/></clipPath><clipPath id="000f541665"><rect x="0" width="375" y="0" height="375"/></clipPath></defs><g clip-path="url(#dc9f7c4d85)"><g clip-path="url(#f5f9e16aa7)"><g transform="matrix(1, 0, 0, 1, 0, 0)"><g clip-path="url(#000f541665)"><g clip-path="url(#e830bcc991)"><g clip-path="url(#5c3a1c0e5a)"><path fill="#b23eb6" d="M 0 0 L 374.140625 0 L 374.140625 375.601562 L 0 375.601562 Z M 0 0 " fill-opacity="1" fill-rule="nonzero"/></g></g></g></g></g></g></svg>