<svg xmlns="http://www.w3.org/2000/svg" xmlns:xlink="http://www.w3.org/1999/xlink" width="1080" zoomAndPan="magnify" viewBox="0 0 810 809.999993" height="1080" preserveAspectRatio="xMidYMid meet" version="1.0"><defs><clipPath id="8e86b20871"><path d="M 93.851562 283.5 L 202.144531 283.5 L 202.144531 391.796875 L 93.851562 391.796875 Z M 93.851562 283.5 " clip-rule="nonzero"/></clipPath><clipPath id="ff0e9b419f"><path d="M 96.851562 283.5 L 199.144531 283.5 C 200.800781 283.5 202.144531 284.84375 202.144531 286.5 L 202.144531 388.796875 C 202.144531 390.453125 200.800781 391.796875 199.144531 391.796875 L 96.851562 391.796875 C 95.191406 391.796875 93.851562 390.453125 93.851562 388.796875 L 93.851562 286.5 C 93.851562 284.84375 95.191406 283.5 96.851562 283.5 Z M 96.851562 283.5 " clip-rule="nonzero"/></clipPath><clipPath id="8e98b30334"><path d="M 0.851562 0.5 L 109.144531 0.5 L 109.144531 108.796875 L 0.851562 108.796875 Z M 0.851562 0.5 " clip-rule="nonzero"/></clipPath><clipPath id="50c896669a"><path d="M 3.851562 0.5 L 106.144531 0.5 C 107.800781 0.5 109.144531 1.84375 109.144531 3.5 L 109.144531 105.796875 C 109.144531 107.453125 107.800781 108.796875 106.144531 108.796875 L 3.851562 108.796875 C 2.191406 108.796875 0.851562 107.453125 0.851562 105.796875 L 0.851562 3.5 C 0.851562 1.84375 2.191406 0.5 3.851562 0.5 Z M 3.851562 0.5 " clip-rule="nonzero"/></clipPath><clipPath id="b9a7b00d47"><rect x="0" width="110" y="0" height="109"/></clipPath><clipPath id="692f2ff662"><path d="M 229.921875 283.5 L 338.214844 283.5 L 338.214844 391.796875 L 229.921875 391.796875 Z M 229.921875 283.5 " clip-rule="nonzero"/></clipPath><clipPath id="f97fd2fda2"><path d="M 232.921875 283.5 L 335.214844 283.5 C 336.871094 283.5 338.214844 284.84375 338.214844 286.5 L 338.214844 388.796875 C 338.214844 390.453125 336.871094 391.796875 335.214844 391.796875 L 232.921875 391.796875 C 231.261719 391.796875 229.921875 390.453125 229.921875 388.796875 L 229.921875 286.5 C 229.921875 284.84375 231.261719 283.5 232.921875 283.5 Z M 232.921875 283.5 " clip-rule="nonzero"/></clipPath><clipPath id="5dc109d059"><path d="M 0.921875 0.5 L 109.214844 0.5 L 109.214844 108.796875 L 0.921875 108.796875 Z M 0.921875 0.5 " clip-rule="nonzero"/></clipPath><clipPath id="42837b97d1"><path d="M 3.921875 0.5 L 106.214844 0.5 C 107.871094 0.5 109.214844 1.84375 109.214844 3.5 L 109.214844 105.796875 C 109.214844 107.453125 107.871094 108.796875 106.214844 108.796875 L 3.921875 108.796875 C 2.261719 108.796875 0.921875 107.453125 0.921875 105.796875 L 0.921875 3.5 C 0.921875 1.84375 2.261719 0.5 3.921875 0.5 Z M 3.921875 0.5 " clip-rule="nonzero"/></clipPath><clipPath id="674bef46e5"><rect x="0" width="110" y="0" height="109"/></clipPath><clipPath id="fff6bdeea6"><path d="M 366 228 L 510 228 L 510 371 L 366 371 Z M 366 228 " clip-rule="nonzero"/></clipPath><clipPath id="20373631a6"><path d="M 413.3125 227.082031 L 510.445312 274.296875 L 463.226562 371.429688 L 366.09375 324.210938 Z M 413.3125 227.082031 " clip-rule="nonzero"/></clipPath><clipPath id="fa8d48be49"><path d="M 413.3125 227.082031 L 512.339844 275.21875 L 464.199219 374.246094 L 365.171875 326.105469 Z M 413.3125 227.082031 " clip-rule="nonzero"/></clipPath><clipPath id="7cffa05e06"><path d="M 416.011719 228.390625 L 508.007812 273.113281 C 509.5 273.839844 510.121094 275.632812 509.394531 277.125 L 464.671875 369.125 C 463.949219 370.613281 462.152344 371.234375 460.664062 370.507812 L 368.664062 325.785156 C 367.175781 325.0625 366.554688 323.265625 367.277344 321.777344 L 412 229.777344 C 412.726562 228.289062 414.519531 227.667969 416.011719 228.390625 Z M 416.011719 228.390625 " clip-rule="nonzero"/></clipPath></defs><g clip-path="url(#8e86b20871)"><g clip-path="url(#ff0e9b419f)"><g transform="matrix(1, 0, 0, 1, 93, 283)"><g clip-path="url(#b9a7b00d47)"><g clip-path="url(#8e98b30334)"><g clip-path="url(#50c896669a)"><path fill="#b23eb6" d="M 0.851562 0.5 L 109.144531 0.5 L 109.144531 108.796875 L 0.851562 108.796875 Z M 0.851562 0.5 " fill-opacity="1" fill-rule="nonzero"/></g></g></g></g></g></g><g clip-path="url(#692f2ff662)"><g clip-path="url(#f97fd2fda2)"><g transform="matrix(1, 0, 0, 1, 229, 283)"><g clip-path="url(#674bef46e5)"><g clip-path="url(#5dc109d059)"><g clip-path="url(#42837b97d1)"><path fill="#d19acd" d="M 0.921875 0.5 L 109.214844 0.5 L 109.214844 108.796875 L 0.921875 108.796875 Z M 0.921875 0.5 " fill-opacity="1" fill-rule="nonzero"/></g></g></g></g></g></g><g clip-path="url(#fff6bdeea6)"><g clip-path="url(#20373631a6)"><g clip-path="url(#fa8d48be49)"><g clip-path="url(#7cffa05e06)"><path stroke-linecap="butt" transform="matrix(0.67452, 0.327906, -0.327906, 0.67452, 413.312479, 227.080175)" fill="none" stroke-linejoin="miter" d="M 4.000705 -0.00208238 L 140.388378 -0.00157343 C 142.601276 -0.000179281 144.391259 1.787792 144.389865 4.00069 L 144.391633 140.393046 C 144.392646 142.598983 142.59999 144.391243 140.391777 144.387572 L 3.99942 144.38934 C 1.793483 144.390353 0.00122333 142.597698 0.000210436 140.391761 L -0.00155775 3.999404 C 0.00211353 1.791191 1.790085 0.00120764 4.000705 -0.00208238 Z M 4.000705 -0.00208238 " stroke="#f6f2e5" stroke-width="16" stroke-opacity="1" stroke-miterlimit="4"/></g></g></g></g></svg>