<svg xmlns="http://www.w3.org/2000/svg" xmlns:xlink="http://www.w3.org/1999/xlink" width="1080" zoomAndPan="magnify" viewBox="0 0 810 320.250004" height="427" preserveAspectRatio="xMidYMid meet" version="1.0"><defs><clipPath id="d0da80cda0"><path d="M 0.945312 70.632812 L 210.808594 70.632812 L 210.808594 280.496094 L 0.945312 280.496094 Z M 0.945312 70.632812 " clip-rule="nonzero"/></clipPath><clipPath id="e896c3726b"><path d="M 1.683594 70.632812 L 210.070312 70.632812 C 210.476562 70.632812 210.808594 70.964844 210.808594 71.371094 L 210.808594 279.757812 C 210.808594 280.164062 210.476562 280.496094 210.070312 280.496094 L 1.683594 280.496094 C 1.277344 280.496094 0.945312 280.164062 0.945312 279.757812 L 0.945312 71.371094 C 0.945312 70.964844 1.277344 70.632812 1.683594 70.632812 Z M 1.683594 70.632812 " clip-rule="nonzero"/></clipPath><clipPath id="5dba285be9"><path d="M 0.945312 0.632812 L 210.808594 0.632812 L 210.808594 210.496094 L 0.945312 210.496094 Z M 0.945312 0.632812 " clip-rule="nonzero"/></clipPath><clipPath id="c60d271629"><path d="M 1.683594 0.632812 L 210.070312 0.632812 C 210.476562 0.632812 210.808594 0.964844 210.808594 1.371094 L 210.808594 209.757812 C 210.808594 210.164062 210.476562 210.496094 210.070312 210.496094 L 1.683594 210.496094 C 1.277344 210.496094 0.945312 210.164062 0.945312 209.757812 L 0.945312 1.371094 C 0.945312 0.964844 1.277344 0.632812 1.683594 0.632812 Z M 1.683594 0.632812 " clip-rule="nonzero"/></clipPath><clipPath id="8c27243d11"><rect x="0" width="211" y="0" height="211"/></clipPath><clipPath id="dd0ac8d75f"><path d="M 264.632812 70.632812 L 474.496094 70.632812 L 474.496094 280.496094 L 264.632812 280.496094 Z M 264.632812 70.632812 " clip-rule="nonzero"/></clipPath><clipPath id="6238aafc3f"><path d="M 265.371094 70.632812 L 473.757812 70.632812 C 474.164062 70.632812 474.496094 70.964844 474.496094 71.371094 L 474.496094 279.757812 C 474.496094 280.164062 474.164062 280.496094 473.757812 280.496094 L 265.371094 280.496094 C 264.964844 280.496094 264.632812 280.164062 264.632812 279.757812 L 264.632812 71.371094 C 264.632812 70.964844 264.964844 70.632812 265.371094 70.632812 Z M 265.371094 70.632812 " clip-rule="nonzero"/></clipPath><clipPath id="361d785188"><path d="M 0.632812 0.632812 L 210.496094 0.632812 L 210.496094 210.496094 L 0.632812 210.496094 Z M 0.632812 0.632812 " clip-rule="nonzero"/></clipPath><clipPath id="19f9b4eaa6"><path d="M 1.371094 0.632812 L 209.757812 0.632812 C 210.164062 0.632812 210.496094 0.964844 210.496094 1.371094 L 210.496094 209.757812 C 210.496094 210.164062 210.164062 210.496094 209.757812 210.496094 L 1.371094 210.496094 C 0.964844 210.496094 0.632812 210.164062 0.632812 209.757812 L 0.632812 1.371094 C 0.632812 0.964844 0.964844 0.632812 1.371094 0.632812 Z M 1.371094 0.632812 " clip-rule="nonzero"/></clipPath><clipPath id="f10ee2c83c"><rect x="0" width="211" y="0" height="211"/></clipPath><clipPath id="4ee82a7d5b"><path d="M 528 0 L 809 0 L 809 281 L 528 281 Z M 528 0 " clip-rule="nonzero"/></clipPath><clipPath id="2a1b5e9feb"><path d="M 620.3125 0 L 808.734375 91.597656 L 717.136719 280.023438 L 528.710938 188.425781 Z M 620.3125 0 " clip-rule="nonzero"/></clipPath><clipPath id="55007a73c0"><path d="M 620.3125 0 L 812.210938 93.289062 L 718.921875 285.191406 L 527.023438 191.902344 Z M 620.3125 0 " clip-rule="nonzero"/></clipPath><clipPath id="35e6e62c1f"><path d="M 620.976562 0.324219 L 808.386719 91.429688 C 808.753906 91.609375 808.90625 92.050781 808.726562 92.417969 L 717.621094 279.828125 C 717.441406 280.195312 717 280.347656 716.632812 280.167969 L 529.222656 189.0625 C 528.855469 188.886719 528.703125 188.441406 528.882812 188.074219 L 619.988281 0.664062 C 620.167969 0.296875 620.609375 0.144531 620.976562 0.324219 Z M 620.976562 0.324219 " clip-rule="nonzero"/></clipPath></defs><g clip-path="url(#d0da80cda0)"><g clip-path="url(#e896c3726b)"><g transform="matrix(1, 0, 0, 1, 0, 70)"><g clip-path="url(#8c27243d11)"><g clip-path="url(#5dba285be9)"><g clip-path="url(#c60d271629)"><path fill="#b23eb6" d="M 0.945312 0.632812 L 210.808594 0.632812 L 210.808594 210.496094 L 0.945312 210.496094 Z M 0.945312 0.632812 " fill-opacity="1" fill-rule="nonzero"/></g></g></g></g></g></g><g clip-path="url(#dd0ac8d75f)"><g clip-path="url(#6238aafc3f)"><g transform="matrix(1, 0, 0, 1, 264, 70)"><g clip-path="url(#f10ee2c83c)"><g clip-path="url(#361d785188)"><g clip-path="url(#19f9b4eaa6)"><path fill="#d19acd" d="M 0.632812 0.632812 L 210.496094 0.632812 L 210.496094 210.496094 L 0.632812 210.496094 Z M 0.632812 0.632812 " fill-opacity="1" fill-rule="nonzero"/></g></g></g></g></g></g><g clip-path="url(#4ee82a7d5b)"><g clip-path="url(#2a1b5e9feb)"><g clip-path="url(#55007a73c0)"><g clip-path="url(#35e6e62c1f)"><path stroke-linecap="butt" transform="matrix(0.672944, 0.32714, -0.32714, 0.672944, 620.310936, 0.000429964)" fill="none" stroke-linejoin="miter" d="M 0.989247 0.000248113 L 279.481695 -0.0004471 C 280.028031 0.00097837 280.469059 0.442513 280.467634 0.988849 L 280.468329 279.481298 C 280.466904 280.027634 280.025369 280.468662 279.479033 280.467237 L 0.986584 280.467932 C 0.44253 280.471202 -0.000780252 280.024972 0.000645218 279.478636 L -0.0000499942 0.986187 C 0.00137548 0.439851 0.44291 -0.00117736 0.989247 0.000248113 Z M 0.989247 0.000248113 " stroke="#f6f2e5" stroke-width="62" stroke-opacity="1" stroke-miterlimit="4"/></g></g></g></g></svg>