<svg xmlns="http://www.w3.org/2000/svg" xmlns:xlink="http://www.w3.org/1999/xlink" width="1080" zoomAndPan="magnify" viewBox="0 0 810 809.999993" height="1080" preserveAspectRatio="xMidYMid meet" version="1.0"><defs><clipPath id="12714245a0"><path d="M 100.960938 95.316406 L 709.039062 95.316406 L 709.039062 721 L 100.960938 721 Z M 100.960938 95.316406 " clip-rule="nonzero"/></clipPath><clipPath id="d3e14129fd"><path d="M 101.710938 95.316406 L 708.289062 95.316406 C 708.488281 95.316406 708.679688 95.394531 708.820312 95.535156 C 708.960938 95.675781 709.039062 95.867188 709.039062 96.066406 L 709.039062 719.679688 C 709.039062 719.878906 708.960938 720.070312 708.820312 720.210938 C 708.679688 720.351562 708.488281 720.429688 708.289062 720.429688 L 101.710938 720.429688 C 101.511719 720.429688 101.320312 720.351562 101.179688 720.210938 C 101.039062 720.070312 100.960938 719.878906 100.960938 719.679688 L 100.960938 96.066406 C 100.960938 95.867188 101.039062 95.675781 101.179688 95.535156 C 101.320312 95.394531 101.511719 95.316406 101.710938 95.316406 Z M 101.710938 95.316406 " clip-rule="nonzero"/></clipPath><clipPath id="ccc698dfb1"><path d="M 0.960938 0.316406 L 609.039062 0.316406 L 609.039062 625.480469 L 0.960938 625.480469 Z M 0.960938 0.316406 " clip-rule="nonzero"/></clipPath><clipPath id="bb18946c24"><path d="M 1.710938 0.316406 L 608.289062 0.316406 C 608.488281 0.316406 608.679688 0.394531 608.820312 0.535156 C 608.960938 0.675781 609.039062 0.867188 609.039062 1.066406 L 609.039062 624.679688 C 609.039062 624.878906 608.960938 625.070312 608.820312 625.210938 C 608.679688 625.351562 608.488281 625.429688 608.289062 625.429688 L 1.710938 625.429688 C 1.511719 625.429688 1.320312 625.351562 1.179688 625.210938 C 1.039062 625.070312 0.960938 624.878906 0.960938 624.679688 L 0.960938 1.066406 C 0.960938 0.867188 1.039062 0.675781 1.179688 0.535156 C 1.320312 0.394531 1.511719 0.316406 1.710938 0.316406 Z M 1.710938 0.316406 " clip-rule="nonzero"/></clipPath><clipPath id="4c2a2d7b40"><rect x="0" width="610" y="0" height="626"/></clipPath><clipPath id="5b077587ec"><path d="M 256.433594 0 L 810.15625 251.714844 L 553.785156 815.679688 L 0.0625 563.964844 Z M 256.433594 0 " clip-rule="nonzero"/></clipPath><clipPath id="65b2bc73fe"><path d="M 249.011719 -19.789062 L 820.539062 240.019531 L 554.542969 825.15625 L -16.984375 565.34375 Z M 249.011719 -19.789062 " clip-rule="nonzero"/></clipPath><clipPath id="831a468c2c"><path d="M 257.117188 0.3125 L 809.3125 251.335938 C 809.492188 251.417969 809.632812 251.566406 809.703125 251.753906 C 809.773438 251.941406 809.765625 252.148438 809.683594 252.328125 L 553.871094 815.058594 C 553.789062 815.242188 553.640625 815.382812 553.453125 815.453125 C 553.265625 815.523438 553.058594 815.515625 552.878906 815.433594 L 0.683594 564.410156 C 0.503906 564.328125 0.363281 564.179688 0.292969 563.992188 C 0.222656 563.804688 0.230469 563.597656 0.3125 563.417969 L 256.121094 0.683594 C 256.203125 0.503906 256.355469 0.363281 256.542969 0.292969 C 256.726562 0.222656 256.933594 0.230469 257.117188 0.3125 Z M 257.117188 0.3125 " clip-rule="nonzero"/></clipPath></defs><g clip-path="url(#12714245a0)"><g clip-path="url(#d3e14129fd)"><g transform="matrix(1, 0, 0, 1, 100, 95)"><g clip-path="url(#4c2a2d7b40)"><g clip-path="url(#ccc698dfb1)"><g clip-path="url(#bb18946c24)"><path fill="#b23eb6" d="M 0.960938 0.316406 L 609.039062 0.316406 L 609.039062 625.019531 L 0.960938 625.019531 Z M 0.960938 0.316406 " fill-opacity="1" fill-rule="nonzero"/></g></g></g></g></g></g><g clip-path="url(#5b077587ec)"><g clip-path="url(#65b2bc73fe)"><g clip-path="url(#831a468c2c)"><path stroke-linecap="butt" transform="matrix(0.682764, 0.310376, -0.310376, 0.682764, 256.433047, 0.00277088)" fill="none" stroke-linejoin="miter" d="M 1.001313 -0.00154508 L 809.767222 0.000813711 C 810.030591 0.00123542 810.283187 0.103815 810.471991 0.292606 C 810.660795 0.481397 810.765548 0.737003 810.765127 1.000371 L 810.762884 825.196391 C 810.764618 825.464501 810.662038 825.717097 810.473247 825.905901 C 810.284456 826.094705 810.02885 826.199458 809.765482 826.199036 L 0.999573 826.196678 C 0.736204 826.196256 0.483609 826.093676 0.294804 825.904885 C 0.106 825.716094 0.00124692 825.460489 0.00166863 825.19712 L -0.00298545 0.998514 C -0.00256374 0.735146 0.104757 0.480395 0.293548 0.29159 C 0.477598 0.104942 0.733204 0.000188603 1.001313 -0.00154508 Z M 1.001313 -0.00154508 " stroke="#f6f2e5" stroke-width="116" stroke-opacity="1" stroke-miterlimit="4"/></g></g></g></svg>