<svg xmlns="http://www.w3.org/2000/svg" xmlns:xlink="http://www.w3.org/1999/xlink" width="1080" zoomAndPan="magnify" viewBox="0 0 810 809.999993" height="1080" preserveAspectRatio="xMidYMid meet" version="1.0"><defs><clipPath id="798038c731"><path d="M 11 16 L 799 16 L 799 810 L 11 810 Z M 11 16 " clip-rule="nonzero"/></clipPath><clipPath id="6aa2f2963b"><path d="M 272.277344 16.15625 L 799.078125 272.25 L 537.738281 809.84375 L 10.9375 553.75 Z M 272.277344 16.15625 " clip-rule="nonzero"/></clipPath><clipPath id="9597df3d04"><path d="M 272.28125 16.160156 L 803.234375 274.269531 L 538.667969 818.492188 L 7.71875 560.382812 Z M 272.28125 16.160156 " clip-rule="nonzero"/></clipPath><clipPath id="849f5deaee"><path d="M 798.597656 273.339844 L 538.234375 808.917969 C 538.097656 809.203125 537.851562 809.421875 537.554688 809.523438 C 537.257812 809.625 536.929688 809.605469 536.644531 809.46875 L 11.949219 554.398438 C 11.667969 554.261719 11.449219 554.015625 11.347656 553.71875 C 11.242188 553.417969 11.261719 553.09375 11.402344 552.808594 L 271.761719 17.230469 C 271.902344 16.945312 272.144531 16.726562 272.445312 16.625 C 272.742188 16.523438 273.070312 16.542969 273.351562 16.679688 L 798.046875 271.75 C 798.332031 271.886719 798.550781 272.132812 798.652344 272.429688 C 798.753906 272.730469 798.734375 273.054688 798.597656 273.339844 Z M 798.597656 273.339844 " clip-rule="nonzero"/></clipPath></defs><g clip-path="url(#798038c731)"><g clip-path="url(#6aa2f2963b)"><g clip-path="url(#9597df3d04)"><g clip-path="url(#849f5deaee)"><path stroke-linecap="butt" transform="matrix(0.67452, 0.327906, -0.327906, 0.67452, 272.283124, 16.159069)" fill="none" stroke-linejoin="miter" d="M 781.050645 1.585889 L 781.048614 795.60017 C 781.050899 796.021814 780.883315 796.427586 780.586523 796.722436 C 780.289731 797.017286 779.884876 797.185143 779.463232 797.187427 L 1.584551 797.188379 C 1.167591 797.188386 0.761819 797.020803 0.466969 796.724011 C 0.165158 796.424812 -0.000422654 796.02464 0.0019774 795.60072 L -0.000676451 1.588716 C 0.0017236 1.164795 0.164623 0.7613 0.466099 0.464173 C 0.762891 0.169323 1.167747 0.00146538 1.584706 0.00145838 L 779.463387 0.000506533 C 779.885031 -0.00177759 780.290803 0.165806 780.585653 0.462598 C 780.88278 0.764074 781.048361 1.164245 781.050645 1.585889 Z M 781.050645 1.585889 " stroke="#f6f2e5" stroke-width="200" stroke-opacity="1" stroke-miterlimit="4"/></g></g></g></g></svg>