<svg xmlns="http://www.w3.org/2000/svg" xmlns:xlink="http://www.w3.org/1999/xlink" width="1080" zoomAndPan="magnify" viewBox="0 0 810 320.250004" height="427" preserveAspectRatio="xMidYMid meet" version="1.0"><defs><clipPath id="2b109e5b70"><path d="M 0.945312 58.796875 L 210.804688 58.796875 L 210.804688 268.65625 L 0.945312 268.65625 Z M 0.945312 58.796875 " clip-rule="nonzero"/></clipPath><clipPath id="8c856d127d"><path d="M 1.652344 58.796875 L 210.101562 58.796875 C 210.285156 58.796875 210.464844 58.871094 210.597656 59.003906 C 210.730469 59.136719 210.804688 59.316406 210.804688 59.503906 L 210.804688 267.953125 C 210.804688 268.140625 210.730469 268.320312 210.597656 268.449219 C 210.464844 268.582031 210.285156 268.65625 210.101562 268.65625 L 1.652344 268.65625 C 1.464844 268.65625 1.285156 268.582031 1.152344 268.449219 C 1.019531 268.320312 0.945312 268.140625 0.945312 267.953125 L 0.945312 59.503906 C 0.945312 59.316406 1.019531 59.136719 1.152344 59.003906 C 1.285156 58.871094 1.464844 58.796875 1.652344 58.796875 Z M 1.652344 58.796875 " clip-rule="nonzero"/></clipPath><clipPath id="1bd1df6029"><path d="M 0.945312 0.796875 L 210.804688 0.796875 L 210.804688 210.65625 L 0.945312 210.65625 Z M 0.945312 0.796875 " clip-rule="nonzero"/></clipPath><clipPath id="b297d77cdb"><path d="M 1.652344 0.796875 L 210.101562 0.796875 C 210.285156 0.796875 210.464844 0.871094 210.597656 1.003906 C 210.730469 1.136719 210.804688 1.316406 210.804688 1.503906 L 210.804688 209.953125 C 210.804688 210.140625 210.730469 210.320312 210.597656 210.449219 C 210.464844 210.582031 210.285156 210.65625 210.101562 210.65625 L 1.652344 210.65625 C 1.464844 210.65625 1.285156 210.582031 1.152344 210.449219 C 1.019531 210.320312 0.945312 210.140625 0.945312 209.953125 L 0.945312 1.503906 C 0.945312 1.316406 1.019531 1.136719 1.152344 1.003906 C 1.285156 0.871094 1.464844 0.796875 1.652344 0.796875 Z M 1.652344 0.796875 " clip-rule="nonzero"/></clipPath><clipPath id="9a805933c8"><rect x="0" width="211" y="0" height="211"/></clipPath><clipPath id="33b317f6cb"><path d="M 264.628906 58.796875 L 474.488281 58.796875 L 474.488281 268.65625 L 264.628906 268.65625 Z M 264.628906 58.796875 " clip-rule="nonzero"/></clipPath><clipPath id="5a5def7c29"><path d="M 265.335938 58.796875 L 473.78125 58.796875 C 473.96875 58.796875 474.148438 58.871094 474.28125 59.003906 C 474.414062 59.136719 474.488281 59.316406 474.488281 59.503906 L 474.488281 267.953125 C 474.488281 268.140625 474.414062 268.320312 474.28125 268.449219 C 474.148438 268.582031 473.96875 268.65625 473.78125 268.65625 L 265.335938 268.65625 C 265.148438 268.65625 264.96875 268.582031 264.835938 268.449219 C 264.703125 268.320312 264.628906 268.140625 264.628906 267.953125 L 264.628906 59.503906 C 264.628906 59.316406 264.703125 59.136719 264.835938 59.003906 C 264.96875 58.871094 265.148438 58.796875 265.335938 58.796875 Z M 265.335938 58.796875 " clip-rule="nonzero"/></clipPath><clipPath id="ca5f35428f"><path d="M 0.628906 0.796875 L 210.488281 0.796875 L 210.488281 210.65625 L 0.628906 210.65625 Z M 0.628906 0.796875 " clip-rule="nonzero"/></clipPath><clipPath id="25986e36fe"><path d="M 1.335938 0.796875 L 209.78125 0.796875 C 209.96875 0.796875 210.148438 0.871094 210.28125 1.003906 C 210.414062 1.136719 210.488281 1.316406 210.488281 1.503906 L 210.488281 209.953125 C 210.488281 210.140625 210.414062 210.320312 210.28125 210.449219 C 210.148438 210.582031 209.96875 210.65625 209.78125 210.65625 L 1.335938 210.65625 C 1.148438 210.65625 0.96875 210.582031 0.835938 210.449219 C 0.703125 210.320312 0.628906 210.140625 0.628906 209.953125 L 0.628906 1.503906 C 0.628906 1.316406 0.703125 1.136719 0.835938 1.003906 C 0.96875 0.871094 1.148438 0.796875 1.335938 0.796875 Z M 1.335938 0.796875 " clip-rule="nonzero"/></clipPath><clipPath id="723ce6f86c"><rect x="0" width="211" y="0" height="211"/></clipPath><clipPath id="d72b3f316e"><path d="M 528 0 L 809 0 L 809 281 L 528 281 Z M 528 0 " clip-rule="nonzero"/></clipPath><clipPath id="045f40c97f"><path d="M 620.3125 0 L 808.734375 91.601562 L 717.136719 280.027344 L 528.710938 188.425781 Z M 620.3125 0 " clip-rule="nonzero"/></clipPath><clipPath id="22f5f15961"><path d="M 620.3125 0 L 812.203125 93.285156 L 718.917969 285.175781 L 527.027344 191.890625 Z M 620.3125 0 " clip-rule="nonzero"/></clipPath><clipPath id="c3824e7159"><path d="M 620.945312 0.308594 L 808.40625 91.441406 C 808.574219 91.523438 808.703125 91.667969 808.765625 91.84375 C 808.824219 92.023438 808.8125 92.214844 808.730469 92.382812 L 717.601562 279.84375 C 717.519531 280.011719 717.375 280.140625 717.199219 280.203125 C 717.019531 280.261719 716.828125 280.25 716.660156 280.171875 L 529.199219 189.039062 C 529.03125 188.957031 528.902344 188.8125 528.839844 188.636719 C 528.777344 188.457031 528.789062 188.265625 528.871094 188.097656 L 620.003906 0.636719 C 620.085938 0.46875 620.230469 0.339844 620.40625 0.277344 C 620.582031 0.21875 620.777344 0.230469 620.945312 0.308594 Z M 620.945312 0.308594 " clip-rule="nonzero"/></clipPath></defs><g clip-path="url(#2b109e5b70)"><g clip-path="url(#8c856d127d)"><g transform="matrix(1, 0, 0, 1, 0, 58)"><g clip-path="url(#9a805933c8)"><g clip-path="url(#1bd1df6029)"><g clip-path="url(#b297d77cdb)"><path fill="#b23eb6" d="M 0.945312 0.796875 L 210.804688 0.796875 L 210.804688 210.65625 L 0.945312 210.65625 Z M 0.945312 0.796875 " fill-opacity="1" fill-rule="nonzero"/></g></g></g></g></g></g><g clip-path="url(#33b317f6cb)"><g clip-path="url(#5a5def7c29)"><g transform="matrix(1, 0, 0, 1, 264, 58)"><g clip-path="url(#723ce6f86c)"><g clip-path="url(#ca5f35428f)"><g clip-path="url(#25986e36fe)"><path fill="#d19acd" d="M 0.628906 0.796875 L 210.488281 0.796875 L 210.488281 210.65625 L 0.628906 210.65625 Z M 0.628906 0.796875 " fill-opacity="1" fill-rule="nonzero"/></g></g></g></g></g></g><g clip-path="url(#d72b3f316e)"><g clip-path="url(#045f40c97f)"><g clip-path="url(#22f5f15961)"><g clip-path="url(#c3824e7159)"><path stroke-linecap="butt" transform="matrix(0.672944, 0.32714, -0.32714, 0.672944, 620.311391, 0.00187509)" fill="none" stroke-linejoin="miter" d="M 0.941164 -0.00174395 L 279.510627 0.000754876 C 279.76045 0.00120716 279.99984 0.0996062 280.177673 0.274368 C 280.353093 0.456108 280.450848 0.693017 280.450396 0.94284 L 280.452592 279.51002 C 280.45214 279.759842 280.353741 279.999233 280.178979 280.177066 C 279.997239 280.352486 279.76033 280.450241 279.51279 280.454484 L 0.943327 280.451985 C 0.693505 280.451533 0.454114 280.353133 0.276281 280.178371 C 0.096166 279.998914 -0.00158896 279.762005 -0.00113667 279.512183 L 0.00136215 0.94272 C 0.00181444 0.692897 0.100214 0.453507 0.274975 0.275674 C 0.45202 0.102536 0.693624 0.00249891 0.941164 -0.00174395 Z M 0.941164 -0.00174395 " stroke="#f6f2e5" stroke-width="46" stroke-opacity="1" stroke-miterlimit="4"/></g></g></g></g></svg>