<svg xmlns="http://www.w3.org/2000/svg" xmlns:xlink="http://www.w3.org/1999/xlink" width="500" zoomAndPan="magnify" viewBox="0 0 375 374.999991" height="500" preserveAspectRatio="xMidYMid meet" version="1.0"><defs><clipPath id="9112330af2"><path d="M 20 18 L 355 18 L 355 356 L 20 356 Z M 20 18 " clip-rule="nonzero"/></clipPath><clipPath id="b1ed48292d"><path d="M 132.230469 18.75 L 354.144531 126.632812 L 242.660156 355.96875 L 20.742188 248.089844 Z M 132.230469 18.75 " clip-rule="nonzero"/></clipPath><clipPath id="e7490a7081"><path d="M 132.230469 18.753906 L 356.382812 127.722656 L 244.429688 358.015625 L 20.273438 249.046875 Z M 132.230469 18.753906 " clip-rule="nonzero"/></clipPath><clipPath id="3309249712"><path d="M 132.523438 18.894531 L 354.039062 126.582031 C 354.117188 126.621094 354.179688 126.6875 354.207031 126.769531 C 354.234375 126.851562 354.230469 126.941406 354.191406 127.019531 L 242.90625 355.945312 C 242.867188 356.023438 242.800781 356.082031 242.71875 356.113281 C 242.636719 356.140625 242.546875 356.132812 242.46875 356.097656 L 20.949219 248.410156 C 20.871094 248.371094 20.8125 248.304688 20.78125 248.222656 C 20.753906 248.140625 20.761719 248.050781 20.796875 247.972656 L 132.085938 19.046875 C 132.125 18.96875 132.191406 18.910156 132.273438 18.882812 C 132.355469 18.851562 132.445312 18.859375 132.523438 18.894531 Z M 132.523438 18.894531 " clip-rule="nonzero"/></clipPath></defs><g clip-path="url(#9112330af2)"><g clip-path="url(#b1ed48292d)"><g clip-path="url(#e7490a7081)"><g clip-path="url(#3309249712)"><path stroke-linecap="butt" transform="matrix(0.67452, 0.327906, -0.327906, 0.67452, 132.228569, 18.753108)" fill="none" stroke-linejoin="miter" d="M 0.436032 -0.00230415 L 328.841685 -0.000267976 C 328.95814 0.00103124 329.071798 0.0442281 329.152406 0.126656 C 329.233015 0.209084 329.280705 0.319097 329.279406 0.435551 L 329.282954 339.824305 C 329.281654 339.94076 329.23618 340.049734 329.15603 340.135027 C 329.073602 340.215636 328.961312 340.258641 328.847135 340.262026 L 0.436797 340.262267 C 0.320343 340.260968 0.211369 340.215494 0.126076 340.135343 C 0.0454672 340.052915 0.00246172 339.940625 -0.000923231 339.826448 L 0.000212963 0.435416 C 0.00151218 0.318962 0.0469862 0.209988 0.129414 0.129379 C 0.209564 0.0440863 0.321855 0.00108081 0.436032 -0.00230415 Z M 0.436032 -0.00230415 " stroke="#181818" stroke-width="56" stroke-opacity="1" stroke-miterlimit="4"/></g></g></g></g></svg>