<svg xmlns="http://www.w3.org/2000/svg" xmlns:xlink="http://www.w3.org/1999/xlink" width="1080" zoomAndPan="magnify" viewBox="0 0 810 809.999993" height="1080" preserveAspectRatio="xMidYMid meet" version="1.0"><defs><clipPath id="954097d51e"><path d="M 44 40 L 766 40 L 766 770 L 44 770 Z M 44 40 " clip-rule="nonzero"/></clipPath><clipPath id="87178b39e6"><path d="M 285.617188 40.5 L 765.203125 273.640625 L 524.191406 769.414062 L 44.605469 536.273438 Z M 285.617188 40.5 " clip-rule="nonzero"/></clipPath><clipPath id="02af273e4a"><path d="M 285.617188 40.5 L 769.800781 275.878906 L 527.976562 773.328125 L 43.789062 537.953125 Z M 285.617188 40.5 " clip-rule="nonzero"/></clipPath><clipPath id="a682801b31"><path d="M 286.292969 40.828125 L 764.707031 273.402344 C 764.886719 273.488281 765.023438 273.644531 765.085938 273.832031 C 765.152344 274.019531 765.140625 274.226562 765.050781 274.402344 L 524.703125 768.816406 C 524.617188 768.996094 524.460938 769.132812 524.273438 769.199219 C 524.085938 769.261719 523.878906 769.25 523.699219 769.164062 L 45.285156 536.589844 C 45.109375 536.503906 44.96875 536.347656 44.90625 536.160156 C 44.839844 535.972656 44.851562 535.765625 44.941406 535.589844 L 285.289062 41.175781 C 285.375 40.996094 285.53125 40.859375 285.71875 40.796875 C 285.90625 40.730469 286.113281 40.742188 286.292969 40.828125 Z M 286.292969 40.828125 " clip-rule="nonzero"/></clipPath></defs><g clip-path="url(#954097d51e)"><g clip-path="url(#87178b39e6)"><g clip-path="url(#02af273e4a)"><g clip-path="url(#a682801b31)"><path stroke-linecap="butt" transform="matrix(0.67452, 0.327906, -0.327906, 0.67452, 285.61742, 40.501436)" fill="none" stroke-linejoin="miter" d="M 1.000523 -0.0020589 L 710.267205 0.000222427 C 710.532774 -0.00147355 710.787805 0.106194 710.972053 0.2946 C 711.160986 0.480729 711.267621 0.735821 711.262356 0.998983 L 711.265677 733.983501 C 711.267373 734.249069 711.159706 734.5041 710.973577 734.693033 C 710.785171 734.877281 710.530078 734.983917 710.26451 734.985613 L 0.997828 734.983331 C 0.736943 734.98275 0.477228 734.87736 0.29298 734.688954 C 0.104047 734.502825 -0.00258829 734.247732 0.00267703 733.984571 L -0.000644301 1.000053 C -0.00234028 0.734485 0.105327 0.479454 0.293733 0.295205 C 0.479862 0.106272 0.734955 -0.000362924 1.000523 -0.0020589 Z M 1.000523 -0.0020589 " stroke="#b23eb6" stroke-width="152" stroke-opacity="1" stroke-miterlimit="4"/></g></g></g></g></svg>